<svg width="1503" height="697" viewBox="0 0 1503 697" fill="none" xmlns="http://www.w3.org/2000/svg">
<rect width="1503" height="697" fill="#FAF6F6"/>
<path d="M1188.45 422.887C1172.62 491.467 1201.03 593.047 1106.81 630.517C982.587 679.915 820.883 552.285 678.133 528.612C569.187 510.527 333.198 602.13 245.227 558.462C159.491 515.79 338.067 361.358 346.671 293.55C355.184 226.494 248.932 90.3502 317.735 38.1888C410.392 -32.1184 636.183 101.811 777.035 126.743C902.149 148.872 1225.16 79.4993 1296.53 146.799C1356 202.72 1203.76 356.705 1188.45 422.887Z" fill="#FFDA7F"/>
<path opacity="0.9" d="M1188.45 422.887C1172.62 491.467 1201.03 593.047 1106.81 630.517C982.587 679.915 820.883 552.285 678.133 528.612C569.187 510.527 333.198 602.13 245.227 558.462C159.491 515.79 338.067 361.358 346.671 293.55C355.184 226.494 248.932 90.3502 317.735 38.1888C410.392 -32.1184 636.183 101.811 777.035 126.743C902.149 148.872 1225.16 79.4993 1296.53 146.799C1356 202.72 1203.76 356.705 1188.45 422.887Z" fill="#FAF5F5"/>
<path d="M1435 13.1216H97V479.889H1435V13.1216Z" fill="#FFDA7F"/>
<path opacity="0.5" d="M1435 13.1216H97V479.889H1435V13.1216Z" fill="#FAF5F5"/>
<path d="M97 11.1216V48.7657H320.838V34.2593C320.838 30.8095 323.118 27.501 327.177 25.0616C331.236 22.6223 336.741 21.2519 342.482 21.2519H491.332C494.172 21.2519 496.984 21.5885 499.608 22.2425C502.232 22.8965 504.615 23.855 506.622 25.0631C508.628 26.2713 510.219 27.7054 511.302 29.2834C512.385 30.8614 512.94 32.5523 512.935 34.2593V48.7657H1435V11.1216H97Z" fill="#FFDA7F"/>
<path opacity="0.3" d="M1385.96 122.742H513.055V450.61H1385.96V122.742Z" fill="#FAF5F5"/>
<path opacity="0.3" d="M400.493 122.742H143.867V276.969H400.493V122.742Z" fill="#FAF5F5"/>
<path opacity="0.4" d="M400.493 122.742H143.867V276.969H400.493V122.742Z" fill="#FAF5F5"/>
<path d="M355.758 317.828H203.85V324.332H355.758V317.828Z" fill="#263238"/>
<path d="M1381.09 70.5254H1123.98V94.195H1381.09V70.5254Z" fill="#FFDA7F"/>
<path opacity="0.9" d="M1381.09 70.5254H1123.98V94.195H1381.09V70.5254Z" fill="#FAF5F5"/>
<path d="M1385.96 70.5254H1381.05V94.195H1385.96V70.5254Z" fill="#FFDA7F"/>
<path d="M775.072 70.5254H770.164V94.195H775.072V70.5254Z" fill="#FFDA7F"/>
<path d="M770.164 70.5254H513.055V94.195H770.164V70.5254Z" fill="#FFDA7F"/>
<path opacity="0.9" d="M770.164 70.5254H513.055V94.195H770.164V70.5254Z" fill="#FAF5F5"/>
<path opacity="0.4" d="M490.245 448.217C487.045 448.217 483.975 447.453 481.711 446.092C479.448 444.732 478.177 442.887 478.177 440.964V348.848C478.177 346.924 479.448 345.079 481.711 343.719C483.975 342.359 487.045 341.595 490.245 341.595V341.595C493.446 341.595 496.516 342.359 498.779 343.719C501.043 345.079 502.314 346.924 502.314 348.848V440.964C502.314 442.887 501.043 444.732 498.779 446.092C496.516 447.453 493.446 448.217 490.245 448.217Z" fill="#FAF5F5"/>
<path opacity="0.4" d="M184.298 321.068C184.298 323.35 183.172 325.58 181.061 327.477C178.951 329.375 175.951 330.853 172.443 331.725C168.934 332.597 165.074 332.824 161.35 332.377C157.626 331.93 154.207 330.829 151.525 329.214C148.843 327.599 147.019 325.542 146.283 323.303C145.547 321.064 145.933 318.745 147.391 316.638C148.85 314.531 151.316 312.731 154.477 311.467C157.638 310.203 161.352 309.53 165.149 309.535C167.667 309.535 170.16 309.834 172.486 310.414C174.812 310.993 176.925 311.843 178.704 312.914C180.482 313.986 181.892 315.257 182.852 316.656C183.812 318.055 184.303 319.554 184.298 321.068V321.068Z" fill="#FAF5F5"/>
<path d="M398.401 354.07H203.85V360.574H398.401V354.07Z" fill="#263238"/>
<path opacity="0.4" d="M184.298 357.334C184.298 359.616 183.172 361.847 181.061 363.744C178.951 365.641 175.951 367.119 172.443 367.991C168.934 368.864 165.074 369.09 161.35 368.644C157.626 368.197 154.207 367.096 151.525 365.481C148.843 363.865 147.019 361.808 146.283 359.569C145.547 357.331 145.933 355.011 147.391 352.904C148.85 350.797 151.316 348.998 154.477 347.734C157.638 346.469 161.352 345.797 165.149 345.802C170.231 345.808 175.102 347.026 178.692 349.188C182.282 351.35 184.298 354.28 184.298 357.334Z" fill="#FAF5F5"/>
<path d="M371.246 390.336H203.85V396.84H371.246V390.336Z" fill="#263238"/>
<path opacity="0.4" d="M184.298 393.601C184.298 395.882 183.172 398.113 181.061 400.01C178.951 401.907 175.951 403.385 172.443 404.258C168.934 405.13 165.074 405.357 161.35 404.91C157.626 404.463 154.207 403.362 151.525 401.747C148.843 400.131 147.019 398.074 146.283 395.836C145.547 393.597 145.933 391.277 147.391 389.17C148.85 387.064 151.316 385.264 154.477 384C157.638 382.735 161.352 382.063 165.149 382.068C170.231 382.074 175.102 383.292 178.692 385.454C182.282 387.616 184.298 390.546 184.298 393.601Z" fill="#FAF5F5"/>
<path d="M355.758 426.602H203.85V433.106H355.758V426.602Z" fill="#263238"/>
<path opacity="0.4" d="M184.298 429.841C184.306 432.124 183.186 434.357 181.081 436.258C178.975 438.158 175.979 439.64 172.471 440.516C168.963 441.392 165.101 441.622 161.375 441.178C157.649 440.734 154.226 439.635 151.539 438.02C148.853 436.406 147.025 434.349 146.286 432.11C145.547 429.87 145.93 427.549 147.387 425.441C148.845 423.333 151.311 421.532 154.472 420.267C157.634 419.001 161.35 418.328 165.149 418.333C170.227 418.333 175.098 419.546 178.689 421.704C182.281 423.862 184.298 426.789 184.298 429.841V429.841Z" fill="#FAF5F5"/>
<path d="M1020.71 495H1157.09C1160.03 495 1160.43 492.244 1157.5 492.244H1021.12C1018.18 492.244 1017.78 495 1020.71 495Z" fill="#FFDA7F"/>
<path d="M1179.06 495H1196.28C1199.21 495 1199.62 492.244 1196.68 492.244H1179.46C1176.48 492.244 1176.08 495 1179.06 495Z" fill="#FFDA7F"/>
<path d="M1217.11 179.283H1006.66V309.026H1217.11V179.283Z" fill="#FFDA7F"/>
<path opacity="0.9" d="M1217.11 179.283H1006.66V309.026H1217.11V179.283Z" fill="#FAF5F5"/>
<path d="M1217.11 309.026H1221.4V179.283H1217.11V309.026Z" fill="#FFDA7F"/>
<path d="M1217.18 275.417H1006.6V309.027H1217.18V275.417Z" fill="#FFDA7F"/>
<path d="M1185.27 191.354H1038.51V200.396H1185.27V191.354Z" fill="#263238"/>
<path d="M1185.27 223.601H1038.51V232.644H1185.27V223.601Z" fill="#263238"/>
<path d="M1185.27 255.849H1038.51V264.891H1185.27V255.849Z" fill="#263238"/>
<path d="M1204.84 286.898H1018.94V298.358H1204.84V286.898Z" fill="#FAF5F5"/>
<path d="M1002.41 85.5269H791.955V245.791H1002.41V85.5269Z" fill="#FFDA7F"/>
<path opacity="0.9" d="M1002.41 85.5269H791.955V245.791H1002.41V85.5269Z" fill="#FAF5F5"/>
<path d="M1002.38 245.811H1006.66V85.5471H1002.38V245.811Z" fill="#FFDA7F"/>
<path d="M995.028 90.4238H799.335V110.317H995.028V90.4238Z" fill="#FFDA7F"/>
<path d="M1002.41 179.283H791.833V212.892H1002.41V179.283Z" fill="#FFDA7F"/>
<path d="M970.562 128.118H823.801V137.16H970.562V128.118Z" fill="#263238"/>
<path d="M970.562 160.365H823.801V169.408H970.562V160.365Z" fill="#263238"/>
<path d="M990.129 191.415H804.234V202.875H990.129V191.415Z" fill="#FAF5F5"/>
<path d="M970.562 224.881H823.801V233.924H970.562V224.881Z" fill="#263238"/>
<path d="M498.185 212.135C498.185 212.135 462.329 261.983 477.302 266.082C492.276 270.181 542.737 272.479 542.737 272.479L564.753 286.721L577.491 281.111L574.276 266.62L545.34 262.48L506.698 254.365C505.894 254.183 505.155 253.89 504.527 253.505C503.899 253.119 503.397 252.65 503.052 252.126C502.706 251.603 502.525 251.037 502.52 250.464C502.515 249.89 502.687 249.323 503.023 248.797L521.701 221.099L498.185 212.135Z" fill="#E4897B"/>
<path d="M508.902 194.063C508.674 193.599 508.269 193.184 507.728 192.86C507.186 192.536 506.528 192.315 505.82 192.218C505.111 192.122 504.377 192.153 503.693 192.31C503.008 192.467 502.397 192.743 501.921 193.111C498.185 195.926 492.735 201.598 486.304 213.025L479.782 224.804L513.036 240.288L525.559 227.391L508.902 194.063Z" fill="#FAF5F5"/>
<path opacity="0.2" d="M505.289 207.891L508.933 204.724L516.067 208.367L525.559 227.391L513.036 240.288L506.667 237.328C508.627 225.176 505.289 207.891 505.289 207.891Z" fill="black"/>
<path d="M517.843 238.176L479.783 220.063L477.027 225.632L512.975 242.503L517.843 238.176Z" fill="#FFDA7F"/>
<path opacity="0.5" d="M517.843 238.176L479.783 220.063L477.027 225.632L512.975 242.503L517.843 238.176Z" fill="#FAF5F5"/>
<path d="M515.639 582.951L498.094 623.276L480.273 622.572L484.039 578.811L515.639 582.951Z" fill="#E4897B"/>
<path d="M607.928 284.443C607.928 284.443 629.576 313.859 608.754 367.951C587.933 422.042 504.646 610.504 504.646 610.504L481.191 608.599C481.191 608.599 479.722 540.969 512.699 486.464C512.699 486.464 528.53 393.682 520.814 371.863C515.425 356.627 512.148 343.875 521.457 320.794C525.096 310.916 530.12 301.294 536.461 292.061C542.585 283.781 540.778 280.655 540.778 280.655L607.928 284.443Z" fill="#FFDA7F"/>
<path opacity="0.5" d="M607.928 284.443C607.928 284.443 629.576 313.859 608.754 367.951C587.933 422.042 504.646 610.504 504.646 610.504L481.191 608.599C481.191 608.599 479.722 540.969 512.699 486.464C512.699 486.464 528.53 393.682 520.814 371.863C515.425 356.627 512.148 343.875 521.457 320.794C525.096 310.916 530.12 301.294 536.461 292.061C542.585 283.781 540.778 280.655 540.778 280.655L607.928 284.443Z" fill="black"/>
<path opacity="0.4" d="M580.216 436.843C550.148 380.33 558.415 339.321 558.415 339.321L577.246 337.665L591.944 355.344L602.232 384.325C596.384 398.712 588.729 416.95 580.216 436.843Z" fill="black"/>
<path d="M502.197 623.318C502.086 623.293 501.988 623.246 501.917 623.183C501.846 623.121 501.805 623.045 501.798 622.966C501.784 622.887 501.81 622.808 501.871 622.74C501.932 622.672 502.025 622.621 502.135 622.593C502.533 622.49 511.321 619.985 515.057 621.041C515.41 621.134 515.733 621.273 516.006 621.451C516.279 621.629 516.498 621.841 516.649 622.076C516.867 622.331 516.96 622.627 516.916 622.92C516.873 623.214 516.693 623.49 516.404 623.711C514.231 624.503 511.705 624.731 509.3 624.353C506.893 624.146 504.516 623.799 502.197 623.318ZM504.095 622.945C508.382 623.67 514.322 624.146 515.577 623.194C515.761 623.069 515.945 622.862 515.577 622.366C515.499 622.217 515.369 622.083 515.199 621.975C515.028 621.867 514.822 621.788 514.598 621.745C514.259 621.663 513.911 621.601 513.557 621.558C510.304 621.624 507.096 622.094 504.095 622.945V622.945Z" fill="#FFDA7F"/>
<path d="M501.89 623.256C501.816 623.213 501.761 623.158 501.728 623.097C501.696 623.035 501.689 622.968 501.706 622.904C501.706 622.718 503.176 618.474 506.453 617.066C507.363 616.678 508.457 616.537 509.515 616.673C511.015 616.901 511.413 617.459 511.382 617.894C511.566 619.737 505.258 622.697 502.196 623.318H501.982C501.947 623.3 501.916 623.279 501.89 623.256V623.256ZM509.178 617.356C508.471 617.298 507.757 617.407 507.157 617.666C505.156 618.89 503.765 620.503 503.176 622.283C506.238 621.351 510.464 618.971 510.525 617.874C510.525 617.77 510.525 617.501 509.484 617.356H509.178Z" fill="#FFDA7F"/>
<path d="M500.176 620.895L474.577 618.825C474.107 618.782 473.629 618.849 473.222 619.015C472.816 619.18 472.505 619.435 472.342 619.736L465.207 633.502C465.052 633.79 464.983 634.096 465.004 634.403C465.024 634.709 465.135 635.009 465.328 635.286C465.522 635.564 465.795 635.812 466.132 636.018C466.468 636.223 466.862 636.381 467.29 636.483C467.515 636.546 467.752 636.588 467.994 636.607C477.18 637.249 485.509 637.58 497.022 638.533C510.586 639.65 506.943 640.458 522.865 641.928C532.48 642.797 535.572 635.552 531.561 634.848C513.189 631.743 511.934 627.768 505.534 622.676C504.138 621.652 502.227 621.017 500.176 620.895V620.895Z" fill="#263238"/>
<path d="M509.852 607.564L477.364 604.811L477.854 611.352L506.514 613.754L509.852 607.564Z" fill="#263238"/>
<path opacity="0.4" d="M509.852 607.564L477.364 604.811L477.854 611.352L506.514 613.754L509.852 607.564Z" fill="black"/>
<path d="M605.478 585.684L597.823 625.864H579.818L575.195 586.429L605.478 585.684Z" fill="#E4897B"/>
<path d="M636.435 279.931C637.123 283.566 638.588 287.116 640.783 290.467C648.101 303.033 656.093 342.551 654.317 362.548C649.754 418.441 600.854 612.491 600.854 612.491H577.338C577.338 612.491 561.14 546.435 580.4 488.286C580.4 488.286 587.167 406.351 577.093 384.988C570.05 370.125 550.209 355.738 555.291 324.313C560.374 292.889 572.714 282.146 572.714 282.146L636.435 279.931Z" fill="#FFDA7F"/>
<path opacity="0.5" d="M636.435 279.931C637.123 283.566 638.588 287.116 640.783 290.467C648.101 303.033 656.093 342.551 654.317 362.548C649.754 418.441 600.854 612.491 600.854 612.491H577.338C577.338 612.491 561.14 546.435 580.4 488.286C580.4 488.286 587.167 406.351 577.093 384.988C570.05 370.125 550.209 355.738 555.291 324.313C560.374 292.889 572.714 282.146 572.714 282.146L636.435 279.931Z" fill="black"/>
<path d="M537.165 296.388L541.666 290.177L546.381 290.612L543.656 297.071L537.165 296.388Z" fill="#FFDA7F"/>
<path d="M605.202 291.626C617.971 291.109 628.351 290.219 634.996 289.556L638.303 295.953C627.338 297.143 616.29 297.952 605.202 298.375V291.626Z" fill="#FFDA7F"/>
<path d="M553.546 291.088C568.261 292.035 583.054 292.305 597.823 291.895V298.582C593.536 298.582 589.065 298.768 584.411 298.768C573.284 298.772 562.164 298.385 551.096 297.609L553.546 291.088Z" fill="#FFDA7F"/>
<g opacity="0.5">
<path opacity="0.5" d="M537.165 296.388L541.666 290.177L546.381 290.612L543.656 297.071L537.165 296.388Z" fill="#FAF5F5"/>
<path opacity="0.5" d="M605.202 291.626C617.971 291.109 628.351 290.219 634.996 289.556L638.303 295.953C627.338 297.143 616.29 297.952 605.202 298.375V291.626Z" fill="#FAF5F5"/>
<path opacity="0.5" d="M551.097 297.609L553.546 291.088C568.261 292.035 583.054 292.305 597.823 291.895V298.582C593.536 298.582 589.066 298.768 584.411 298.768" fill="#FAF5F5"/>
</g>
<path d="M605.815 625.491C605.697 625.482 605.588 625.447 605.504 625.39C605.421 625.334 605.368 625.26 605.355 625.181C605.332 625.106 605.342 625.028 605.386 624.958C605.43 624.888 605.505 624.828 605.6 624.787C605.968 624.642 614.113 621.351 618.093 622.034C618.824 622.166 619.456 622.475 619.869 622.904C620.124 623.145 620.26 623.435 620.26 623.732C620.26 624.028 620.124 624.318 619.869 624.56C617.877 625.553 615.414 626.017 612.949 625.864C610.559 625.881 608.172 625.756 605.815 625.491ZM607.621 624.974C612.03 625.284 617.971 625.181 619.042 624.125C619.042 624.001 619.349 623.773 619.042 623.297C618.924 623.158 618.76 623.039 618.564 622.95C618.368 622.86 618.144 622.802 617.909 622.779C617.554 622.748 617.193 622.748 616.838 622.779C613.568 623.107 610.419 623.852 607.56 624.974H607.621Z" fill="#FFDA7F"/>
<path d="M605.447 625.47C605.359 625.44 605.287 625.392 605.243 625.332C605.199 625.273 605.185 625.205 605.202 625.139C605.202 624.932 605.722 620.626 608.693 618.929C609.54 618.437 610.64 618.191 611.755 618.246C613.316 618.246 613.806 618.846 613.867 619.281C614.419 621.082 608.846 624.601 606.029 625.491C605.995 625.501 605.958 625.506 605.921 625.506C605.885 625.506 605.848 625.501 605.814 625.491C605.692 625.51 605.563 625.503 605.447 625.47V625.47ZM611.571 618.95C610.858 618.944 610.169 619.122 609.642 619.446C607.894 620.836 606.824 622.557 606.58 624.373C609.458 623.173 613.133 620.419 612.949 619.343C612.949 619.239 612.949 618.97 611.816 618.929L611.571 618.95Z" fill="#FFDA7F"/>
<path d="M603.273 623.276L577.46 623.607C576.988 623.607 576.53 623.719 576.166 623.923C575.802 624.127 575.556 624.411 575.47 624.725L571.183 638.988C571.089 639.287 571.084 639.596 571.167 639.897C571.25 640.197 571.42 640.484 571.668 640.739C571.915 640.995 572.235 641.216 572.61 641.388C572.984 641.559 573.404 641.68 573.847 641.741H574.582C583.768 641.514 592.158 641.058 603.732 640.934C617.389 640.768 613.96 641.907 630.035 641.866C639.711 641.866 641.273 634.372 637.169 634.061C618.338 632.695 616.287 628.886 608.907 624.415C607.29 623.593 605.292 623.189 603.273 623.276Z" fill="#263238"/>
<path d="M575.96 123.804C575.409 122.541 575.96 121.299 577.215 121.071C578.471 120.844 579.879 121.672 580.43 122.955C580.982 124.239 580.43 125.46 579.175 125.688C577.92 125.915 576.48 125.087 575.96 123.804Z" fill="#263238"/>
<path d="M575.746 125.75L590.198 131.96C589.103 133.098 587.631 134.048 585.898 134.734C584.166 135.421 582.22 135.824 580.216 135.914L575.746 125.75Z" fill="#DE5753"/>
<path d="M571.367 121.444C571.546 121.404 571.708 121.337 571.842 121.247C571.975 121.157 572.074 121.047 572.133 120.926C572.523 119.985 573.237 119.12 574.216 118.4C575.195 117.681 576.412 117.128 577.767 116.786C577.909 116.758 578.043 116.71 578.158 116.647C578.274 116.584 578.37 116.506 578.441 116.417C578.512 116.329 578.557 116.232 578.573 116.132C578.588 116.031 578.574 115.93 578.532 115.834C578.453 115.634 578.261 115.464 577.997 115.359C577.734 115.255 577.42 115.224 577.124 115.275C575.403 115.69 573.853 116.375 572.602 117.275C571.35 118.175 570.434 119.263 569.928 120.45C569.829 120.64 569.844 120.848 569.97 121.03C570.096 121.212 570.323 121.353 570.602 121.423V121.423C570.719 121.464 570.849 121.486 570.981 121.49C571.113 121.494 571.245 121.478 571.367 121.444V121.444Z" fill="#263238"/>
<path d="M511.26 137.715C520.936 153.179 524.549 159.865 540.594 165.165C562.977 169.119 590.78 161.708 588.086 144.567C585.697 129.166 570.296 106.519 544.054 105.608C538.277 105.405 532.518 106.204 527.327 107.931C522.136 109.657 517.685 112.253 514.398 115.472C511.111 118.69 509.096 122.424 508.547 126.318C507.998 130.211 508.932 134.135 511.26 137.715Z" fill="#E4897B"/>
<path opacity="0.2" d="M564.569 157.898C564.569 157.898 581.196 160.175 587.779 150.363C585.544 158.25 575.837 163.259 564.171 165.247L560.16 163.342L562.334 159.347L564.569 157.898Z" fill="black"/>
<path d="M534.317 183.567C534.317 183.567 548.708 178.806 538.328 160.258C538.328 160.258 549.81 152.557 561.752 155.828C573.694 159.099 563.651 176.177 577.705 178.806C577.705 178.806 570.387 185.658 534.317 183.567Z" fill="#E4897B"/>
<path d="M562.426 133.74C558.737 131.321 555.405 128.666 552.475 125.812C547.606 121.071 558.966 115.565 557.037 106.787C555.108 98.0102 541.727 103.351 541.727 103.351C541.727 103.351 509.27 100.867 504.983 123.659C500.785 128.063 498.58 133.199 498.638 138.438C498.696 143.677 501.015 148.79 505.31 153.151C509.605 157.512 515.689 160.93 522.816 162.987C529.943 165.044 537.803 165.649 545.432 164.729L547.575 164.398C551.806 163.468 555.493 161.659 558.111 159.227C560.729 156.796 562.143 153.867 562.151 150.86L562.426 133.74Z" fill="#263238"/>
<path d="M541.512 165.041C541.512 165.041 533 166.966 536.307 169.284C539.614 171.603 541.512 165.041 541.512 165.041Z" fill="#263238"/>
<path d="M513.464 128.855C512.944 123.659 510.953 119.519 503.268 119.87C495.582 120.222 495.123 124.507 495.644 129.703C496.164 134.899 497.542 139.06 505.228 138.688C512.913 138.315 513.954 134.051 513.464 128.855Z" fill="#FFDA7F"/>
<path d="M555.567 132.746C557.901 133.377 560.026 134.314 561.818 135.505C563.611 136.695 565.035 138.115 566.009 139.681C568.581 143.821 563.222 146.575 556.823 145.891C551.127 145.291 542.982 142.352 543.074 137.88C543.096 136.893 543.489 135.925 544.214 135.068C544.94 134.212 545.975 133.493 547.223 132.98C548.471 132.467 549.891 132.177 551.351 132.136C552.81 132.095 554.261 132.305 555.567 132.746V132.746Z" fill="#E4897B"/>
<path d="M475.067 130.677C475.459 134.367 478.001 137.802 482.134 140.227C486.267 142.653 491.654 143.871 497.113 143.615C508.504 143.077 509.178 136.784 508.382 129.124C507.585 121.465 505.595 115.275 494.235 115.813C488.782 116.074 483.704 117.784 480.111 120.569C476.519 123.355 474.705 126.989 475.067 130.677V130.677Z" fill="#263238"/>
<path d="M553.301 100.122C551.158 102.192 549.014 105.194 551.342 107.284C552.658 108.485 555.047 108.899 556.639 109.955C558.23 111.233 559.174 112.821 559.333 114.488C560.807 120.447 561.565 126.477 561.599 132.519C567.723 125.356 574.276 117.78 574.521 109.479C574.703 106.999 573.955 104.528 572.347 102.296C571.514 101.191 570.315 100.232 568.844 99.4924C567.373 98.7527 565.669 98.2527 563.865 98.0311C560.252 97.6999 553.301 100.122 553.301 100.122Z" fill="#263238"/>
<path d="M586.86 179.779C586.86 179.779 588.269 167.938 554.342 172.72C520.415 177.502 543.196 184.085 543.196 184.085L586.86 179.779Z" fill="#FFDA7F"/>
<path opacity="0.5" d="M586.86 179.779C586.86 179.779 588.269 167.938 554.342 172.72C520.415 177.502 543.196 184.085 543.196 184.085L586.86 179.779Z" fill="#FAF5F5"/>
<path d="M635.853 284.174C597.884 289.163 554.342 287.114 538.389 286.099C534.776 285.851 541.451 257.118 503.115 205.055C501.218 202.668 500.575 199.916 501.293 197.249C502.01 194.583 504.046 192.16 507.065 190.378C533.153 175.784 580.553 176.343 602.293 177.523C606.088 177.703 609.77 178.473 613.052 179.773C616.334 181.072 619.128 182.867 621.217 185.016C628.784 193.684 633.884 203.233 636.251 213.17C638.811 222.621 640.275 232.193 640.63 241.799C641.64 264.529 637.568 283.946 635.853 284.174Z" fill="#FAF5F5"/>
<path opacity="0.2" d="M640.629 241.799C628.381 240.226 611.173 209.692 611.173 209.692L636.251 213.17C638.811 222.621 640.275 232.193 640.629 241.799Z" fill="black"/>
<path d="M633.373 193.38L669.811 209.092C670.463 209.376 671.194 209.566 671.96 209.651C672.725 209.736 673.508 209.713 674.26 209.585C675.012 209.457 675.717 209.226 676.332 208.906C676.947 208.586 677.457 208.185 677.833 207.726L707.412 171.872L718.129 153.241L721.191 150.984L739.563 140.468H746.606L732.949 148.749L736.746 153.137L742.87 162.556L718.527 177.047C718.527 177.047 704.381 220.043 689.224 229.213C677.19 236.5 616.624 207.56 616.624 207.56L633.373 193.38Z" fill="#E4897B"/>
<path d="M608.233 178.392C617.695 180.338 638.517 186.672 671.158 207.497L647.152 229.233C639.34 228.058 632.033 225.685 625.795 222.296C619.556 218.908 614.554 214.595 611.173 209.692C604.966 200.884 601.824 191.232 601.987 181.476C601.997 180.969 602.182 180.47 602.526 180.02C602.87 179.569 603.365 179.179 603.971 178.88C604.577 178.58 605.277 178.381 606.017 178.296C606.757 178.211 607.516 178.244 608.233 178.392V178.392Z" fill="#FAF5F5"/>
<path d="M667.391 203.068L640.231 229.586L649.326 230.869L674.955 207.208L667.391 203.068Z" fill="#FFDA7F"/>
<path opacity="0.5" d="M667.391 203.068L640.231 229.586L649.326 230.869L674.955 207.208L667.391 203.068Z" fill="#FAF5F5"/>
<path d="M605.478 609.117H572.714L574.521 615.555H603.426L605.478 609.117Z" fill="#263238"/>
<path opacity="0.4" d="M605.478 609.117H572.714L574.521 615.555H603.426L605.478 609.117Z" fill="black"/>
</svg>
