<svg width="247" height="26" viewBox="0 0 247 26" fill="none" xmlns="http://www.w3.org/2000/svg">
<rect width="247" height="26" fill="white"/>
<rect width="80" height="26" fill="#499EED"/>
<path d="M24.3 8.684V10.124H22.584V15.554H24.3V17H18.9V15.554H20.616V10.124H18.9V8.684H24.3ZM26.0353 17V10.628H27.6913L27.8233 11.366C28.1073 11.046 28.4073 10.808 28.7233 10.652C29.0393 10.496 29.3993 10.418 29.8033 10.418C30.3473 10.418 30.7753 10.584 31.0873 10.916C31.3993 11.248 31.5553 11.716 31.5553 12.32V17H29.6593V12.866C29.6593 12.474 29.6153 12.202 29.5273 12.05C29.4433 11.894 29.2833 11.816 29.0473 11.816C28.8473 11.816 28.6553 11.88 28.4713 12.008C28.2913 12.136 28.1113 12.314 27.9313 12.542V17H26.0353ZM37.1246 10.628V15.704H38.7446V17H33.4226V15.704H35.2286V11.924H33.4826V10.628H37.1246ZM36.8906 6.98L37.6286 8.408L34.7966 9.53L34.2746 8.57L36.8906 6.98ZM43.8039 15.71C44.0639 15.71 44.3079 15.66 44.5359 15.56C44.7679 15.456 44.9979 15.324 45.2259 15.164L46.0719 16.364C45.7919 16.604 45.4499 16.804 45.0459 16.964C44.6459 17.124 44.1979 17.204 43.7019 17.204C43.0179 17.204 42.4299 17.064 41.9379 16.784C41.4459 16.5 41.0679 16.108 40.8039 15.608C40.5399 15.104 40.4079 14.52 40.4079 13.856C40.4079 13.192 40.5419 12.602 40.8099 12.086C41.0819 11.566 41.4659 11.158 41.9619 10.862C42.4619 10.566 43.0539 10.418 43.7379 10.418C44.2219 10.418 44.6519 10.486 45.0279 10.622C45.4079 10.754 45.7559 10.952 46.0719 11.216L45.2499 12.356C45.0339 12.204 44.8059 12.086 44.5659 12.002C44.3259 11.918 44.0759 11.876 43.8159 11.876C43.3879 11.876 43.0419 12.028 42.7779 12.332C42.5179 12.632 42.3879 13.14 42.3879 13.856C42.3879 14.324 42.4499 14.694 42.5739 14.966C42.6979 15.234 42.8659 15.426 43.0779 15.542C43.2939 15.654 43.5359 15.71 43.8039 15.71ZM50.3693 7.292C50.6973 7.292 50.9653 7.394 51.1733 7.598C51.3813 7.802 51.4853 8.056 51.4853 8.36C51.4853 8.664 51.3813 8.92 51.1733 9.128C50.9653 9.332 50.6973 9.434 50.3693 9.434C50.0373 9.434 49.7653 9.332 49.5533 9.128C49.3453 8.92 49.2413 8.664 49.2413 8.36C49.2413 8.056 49.3453 7.802 49.5533 7.598C49.7653 7.394 50.0373 7.292 50.3693 7.292ZM51.5153 10.628V15.704H53.1353V17H47.8133V15.704H49.6193V11.924H47.8733V10.628H51.5153ZM57.5766 10.418C58.2326 10.418 58.7906 10.558 59.2506 10.838C59.7106 11.118 60.0626 11.512 60.3066 12.02C60.5506 12.524 60.6726 13.116 60.6726 13.796C60.6726 14.86 60.4006 15.694 59.8566 16.298C59.3126 16.902 58.5526 17.204 57.5766 17.204C56.6006 17.204 55.8406 16.906 55.2966 16.31C54.7526 15.714 54.4806 14.88 54.4806 13.808C54.4806 13.132 54.6026 12.54 54.8466 12.032C55.0946 11.524 55.4486 11.128 55.9086 10.844C56.3726 10.56 56.9286 10.418 57.5766 10.418ZM57.5766 11.816C57.1886 11.816 56.9006 11.976 56.7126 12.296C56.5286 12.612 56.4366 13.116 56.4366 13.808C56.4366 14.512 56.5286 15.022 56.7126 15.338C56.9006 15.654 57.1886 15.812 57.5766 15.812C57.9646 15.812 58.2506 15.654 58.4346 15.338C58.6226 15.022 58.7166 14.508 58.7166 13.796C58.7166 13.108 58.6226 12.606 58.4346 12.29C58.2506 11.974 57.9646 11.816 57.5766 11.816Z" fill="white"/>
<path d="M107.188 17L104.998 10.31C105.034 10.546 105.076 10.85 105.124 11.222C105.172 11.59 105.212 12 105.244 12.452C105.28 12.904 105.298 13.374 105.298 13.862V17H103.624V8.684H106.078L108.202 15.338C108.138 14.958 108.072 14.472 108.004 13.88C107.936 13.288 107.902 12.618 107.902 11.87V8.684H109.576V17H107.188ZM113.795 10.418C114.451 10.418 115.009 10.558 115.469 10.838C115.929 11.118 116.281 11.512 116.525 12.02C116.769 12.524 116.891 13.116 116.891 13.796C116.891 14.86 116.619 15.694 116.075 16.298C115.531 16.902 114.771 17.204 113.795 17.204C112.819 17.204 112.059 16.906 111.515 16.31C110.971 15.714 110.699 14.88 110.699 13.808C110.699 13.132 110.821 12.54 111.065 12.032C111.313 11.524 111.667 11.128 112.127 10.844C112.591 10.56 113.147 10.418 113.795 10.418ZM113.795 11.816C113.407 11.816 113.119 11.976 112.931 12.296C112.747 12.612 112.655 13.116 112.655 13.808C112.655 14.512 112.747 15.022 112.931 15.338C113.119 15.654 113.407 15.812 113.795 15.812C114.183 15.812 114.469 15.654 114.653 15.338C114.841 15.022 114.935 14.508 114.935 13.796C114.935 13.108 114.841 12.606 114.653 12.29C114.469 11.974 114.183 11.816 113.795 11.816ZM123.967 16.628C123.719 16.788 123.419 16.924 123.067 17.036C122.715 17.148 122.319 17.204 121.879 17.204C121.047 17.204 120.429 16.992 120.025 16.568C119.621 16.14 119.419 15.56 119.419 14.828V11.936H118.081V10.628H119.419V9.248L121.315 9.02V10.628H123.367L123.181 11.936H121.315V14.828C121.315 15.144 121.387 15.37 121.531 15.506C121.675 15.642 121.905 15.71 122.221 15.71C122.445 15.71 122.649 15.684 122.833 15.632C123.021 15.576 123.189 15.506 123.337 15.422L123.967 16.628ZM129.32 10.628V15.704H130.94V17H125.618V15.704H127.424V11.924H125.678V10.628H129.32ZM129.086 6.98L129.824 8.408L126.992 9.53L126.47 8.57L129.086 6.98ZM135.999 15.71C136.259 15.71 136.503 15.66 136.731 15.56C136.963 15.456 137.193 15.324 137.421 15.164L138.267 16.364C137.987 16.604 137.645 16.804 137.241 16.964C136.841 17.124 136.393 17.204 135.897 17.204C135.213 17.204 134.625 17.064 134.133 16.784C133.641 16.5 133.263 16.108 132.999 15.608C132.735 15.104 132.603 14.52 132.603 13.856C132.603 13.192 132.737 12.602 133.005 12.086C133.277 11.566 133.661 11.158 134.157 10.862C134.657 10.566 135.249 10.418 135.933 10.418C136.417 10.418 136.847 10.486 137.223 10.622C137.603 10.754 137.951 10.952 138.267 11.216L137.445 12.356C137.229 12.204 137.001 12.086 136.761 12.002C136.521 11.918 136.271 11.876 136.011 11.876C135.583 11.876 135.237 12.028 134.973 12.332C134.713 12.632 134.583 13.14 134.583 13.856C134.583 14.324 134.645 14.694 134.769 14.966C134.893 15.234 135.061 15.426 135.273 15.542C135.489 15.654 135.731 15.71 135.999 15.71ZM142.565 7.292C142.893 7.292 143.161 7.394 143.369 7.598C143.577 7.802 143.681 8.056 143.681 8.36C143.681 8.664 143.577 8.92 143.369 9.128C143.161 9.332 142.893 9.434 142.565 9.434C142.233 9.434 141.961 9.332 141.749 9.128C141.541 8.92 141.437 8.664 141.437 8.36C141.437 8.056 141.541 7.802 141.749 7.598C141.961 7.394 142.233 7.292 142.565 7.292ZM143.711 10.628V15.704H145.331V17H140.009V15.704H141.815V11.924H140.069V10.628H143.711ZM152.376 15.164C152.376 15.404 152.408 15.578 152.472 15.686C152.54 15.794 152.648 15.876 152.796 15.932L152.406 17.18C152.03 17.144 151.712 17.062 151.452 16.934C151.196 16.802 150.994 16.604 150.846 16.34C150.602 16.632 150.29 16.85 149.91 16.994C149.53 17.134 149.142 17.204 148.746 17.204C148.09 17.204 147.566 17.018 147.174 16.646C146.786 16.27 146.592 15.788 146.592 15.2C146.592 14.508 146.862 13.974 147.402 13.598C147.946 13.222 148.71 13.034 149.694 13.034H150.552V12.794C150.552 12.142 150.132 11.816 149.292 11.816C149.088 11.816 148.826 11.846 148.506 11.906C148.186 11.962 147.866 12.044 147.546 12.152L147.108 10.892C147.52 10.736 147.948 10.618 148.392 10.538C148.84 10.458 149.24 10.418 149.592 10.418C150.54 10.418 151.24 10.612 151.692 11C152.148 11.384 152.376 11.94 152.376 12.668V15.164ZM149.4 15.848C149.604 15.848 149.818 15.788 150.042 15.668C150.266 15.544 150.436 15.37 150.552 15.146V14.114H150.084C149.556 14.114 149.168 14.196 148.92 14.36C148.672 14.52 148.548 14.756 148.548 15.068C148.548 15.312 148.622 15.504 148.77 15.644C148.922 15.78 149.132 15.848 149.4 15.848ZM156.763 15.848C157.079 15.848 157.333 15.798 157.525 15.698C157.721 15.598 157.819 15.448 157.819 15.248C157.819 15.112 157.781 14.998 157.705 14.906C157.629 14.814 157.483 14.726 157.267 14.642C157.051 14.558 156.731 14.458 156.307 14.342C155.723 14.186 155.247 13.962 154.879 13.67C154.515 13.378 154.333 12.95 154.333 12.386C154.333 11.818 154.569 11.348 155.041 10.976C155.517 10.604 156.203 10.418 157.099 10.418C157.667 10.418 158.161 10.492 158.581 10.64C159.005 10.784 159.371 10.968 159.679 11.192L158.923 12.308C158.659 12.144 158.375 12.014 158.071 11.918C157.767 11.818 157.461 11.768 157.153 11.768C156.545 11.768 156.241 11.932 156.241 12.26C156.241 12.368 156.279 12.462 156.355 12.542C156.435 12.618 156.583 12.698 156.799 12.782C157.015 12.862 157.331 12.962 157.747 13.082C158.159 13.198 158.517 13.332 158.821 13.484C159.129 13.636 159.367 13.84 159.535 14.096C159.703 14.348 159.787 14.682 159.787 15.098C159.787 15.562 159.649 15.952 159.373 16.268C159.097 16.58 158.731 16.814 158.275 16.97C157.819 17.126 157.319 17.204 156.775 17.204C156.159 17.204 155.615 17.116 155.143 16.94C154.671 16.764 154.269 16.532 153.937 16.244L154.891 15.176C155.139 15.368 155.419 15.528 155.731 15.656C156.047 15.784 156.391 15.848 156.763 15.848Z" fill="#499EED"/>
<path d="M203.852 14.564C203.852 15.044 203.76 15.442 203.576 15.758C203.392 16.074 203.14 16.322 202.82 16.502C202.5 16.682 202.134 16.81 201.722 16.886C201.314 16.962 200.884 17 200.432 17H197.672V8.684H200.306C200.878 8.684 201.404 8.748 201.884 8.876C202.368 9.004 202.756 9.224 203.048 9.536C203.344 9.844 203.492 10.268 203.492 10.808C203.492 11.304 203.34 11.7 203.036 11.996C202.732 12.292 202.376 12.492 201.968 12.596C202.264 12.644 202.556 12.738 202.844 12.878C203.136 13.014 203.376 13.218 203.564 13.49C203.756 13.762 203.852 14.12 203.852 14.564ZM201.512 11.006C201.512 10.678 201.408 10.442 201.2 10.298C200.996 10.15 200.678 10.076 200.246 10.076H199.64V12.002H200.306C200.73 12.002 201.036 11.924 201.224 11.768C201.416 11.612 201.512 11.358 201.512 11.006ZM201.824 14.486C201.824 14.046 201.698 13.742 201.446 13.574C201.198 13.406 200.866 13.322 200.45 13.322H199.64V15.566H200.366C200.622 15.566 200.86 15.54 201.08 15.488C201.304 15.432 201.484 15.326 201.62 15.17C201.756 15.014 201.824 14.786 201.824 14.486ZM208.359 8.096V14.996C208.359 15.252 208.431 15.436 208.575 15.548C208.723 15.656 208.925 15.71 209.181 15.71C209.345 15.71 209.503 15.692 209.655 15.656C209.807 15.616 209.949 15.57 210.081 15.518L210.537 16.784C210.321 16.896 210.061 16.994 209.757 17.078C209.453 17.162 209.099 17.204 208.695 17.204C207.927 17.204 207.363 16.984 207.003 16.544C206.643 16.1 206.463 15.506 206.463 14.762V9.392H204.585V8.096H208.359ZM214.991 10.418C215.647 10.418 216.205 10.558 216.665 10.838C217.125 11.118 217.477 11.512 217.721 12.02C217.965 12.524 218.087 13.116 218.087 13.796C218.087 14.86 217.815 15.694 217.271 16.298C216.727 16.902 215.967 17.204 214.991 17.204C214.015 17.204 213.255 16.906 212.711 16.31C212.167 15.714 211.895 14.88 211.895 13.808C211.895 13.132 212.017 12.54 212.261 12.032C212.509 11.524 212.863 11.128 213.323 10.844C213.787 10.56 214.343 10.418 214.991 10.418ZM214.991 11.816C214.603 11.816 214.315 11.976 214.127 12.296C213.943 12.612 213.851 13.116 213.851 13.808C213.851 14.512 213.943 15.022 214.127 15.338C214.315 15.654 214.603 15.812 214.991 15.812C215.379 15.812 215.665 15.654 215.849 15.338C216.037 15.022 216.131 14.508 216.131 13.796C216.131 13.108 216.037 12.606 215.849 12.29C215.665 11.974 215.379 11.816 214.991 11.816ZM225.084 9.608L225.528 11C225.304 11.088 225.042 11.152 224.742 11.192C224.442 11.232 224.092 11.252 223.692 11.252C224.092 11.424 224.396 11.638 224.604 11.894C224.816 12.146 224.922 12.478 224.922 12.89C224.922 13.302 224.812 13.67 224.592 13.994C224.372 14.314 224.06 14.566 223.656 14.75C223.252 14.934 222.774 15.026 222.222 15.026C221.958 15.026 221.712 15.002 221.484 14.954C221.344 15.026 221.274 15.148 221.274 15.32C221.274 15.42 221.314 15.51 221.394 15.59C221.478 15.67 221.672 15.71 221.976 15.71H223.02C223.76 15.71 224.35 15.884 224.79 16.232C225.23 16.58 225.45 17.02 225.45 17.552C225.45 18.204 225.164 18.718 224.592 19.094C224.02 19.47 223.17 19.658 222.042 19.658C221.226 19.658 220.594 19.574 220.146 19.406C219.702 19.242 219.392 19.006 219.216 18.698C219.044 18.394 218.958 18.032 218.958 17.612H220.638C220.638 17.796 220.674 17.946 220.746 18.062C220.822 18.182 220.964 18.27 221.172 18.326C221.384 18.382 221.69 18.41 222.09 18.41C222.494 18.41 222.802 18.378 223.014 18.314C223.226 18.25 223.37 18.162 223.446 18.05C223.526 17.942 223.566 17.82 223.566 17.684C223.566 17.496 223.492 17.344 223.344 17.228C223.196 17.112 222.962 17.054 222.642 17.054H221.628C220.94 17.054 220.44 16.928 220.128 16.676C219.816 16.42 219.66 16.122 219.66 15.782C219.66 15.546 219.722 15.322 219.846 15.11C219.974 14.898 220.152 14.72 220.38 14.576C219.972 14.36 219.68 14.106 219.504 13.814C219.328 13.518 219.24 13.164 219.24 12.752C219.24 12.272 219.362 11.86 219.606 11.516C219.85 11.168 220.186 10.9 220.614 10.712C221.046 10.524 221.538 10.43 222.09 10.43C222.566 10.438 222.98 10.406 223.332 10.334C223.684 10.258 224 10.156 224.28 10.028C224.56 9.896 224.828 9.756 225.084 9.608ZM222.138 11.66C221.838 11.66 221.6 11.756 221.424 11.948C221.248 12.136 221.16 12.396 221.16 12.728C221.16 13.08 221.25 13.35 221.43 13.538C221.61 13.726 221.846 13.82 222.138 13.82C222.786 13.82 223.11 13.448 223.11 12.704C223.11 12.008 222.786 11.66 222.138 11.66Z" fill="#499EED"/>
<line x1="15" y1="20.5" x2="62" y2="20.5" stroke="white"/>
</svg>
