<svg width="155" height="16" viewBox="0 0 155 16" fill="none" xmlns="http://www.w3.org/2000/svg">
<rect width="155" height="16" fill="white"/>
<rect width="51" height="16" fill="#18798E"/>
<rect x="59" width="59" height="16" fill="#18798E"/>
<rect x="127" width="28" height="16" fill="#18798E"/>
<path d="M10.3 3.684V5.124H8.584V10.554H10.3V12H4.9V10.554H6.616V5.124H4.9V3.684H10.3ZM12.0353 12V5.628H13.6913L13.8233 6.366C14.1073 6.046 14.4073 5.808 14.7233 5.652C15.0393 5.496 15.3993 5.418 15.8033 5.418C16.3473 5.418 16.7753 5.584 17.0873 5.916C17.3993 6.248 17.5553 6.716 17.5553 7.32V12H15.6593V7.866C15.6593 7.474 15.6153 7.202 15.5273 7.05C15.4433 6.894 15.2833 6.816 15.0473 6.816C14.8473 6.816 14.6553 6.88 14.4713 7.008C14.2913 7.136 14.1113 7.314 13.9313 7.542V12H12.0353ZM23.1246 5.628V10.704H24.7446V12H19.4226V10.704H21.2286V6.924H19.4826V5.628H23.1246ZM22.8906 1.98L23.6286 3.408L20.7966 4.53L20.2746 3.57L22.8906 1.98ZM29.8039 10.71C30.0639 10.71 30.3079 10.66 30.5359 10.56C30.7679 10.456 30.9979 10.324 31.2259 10.164L32.0719 11.364C31.7919 11.604 31.4499 11.804 31.0459 11.964C30.6459 12.124 30.1979 12.204 29.7019 12.204C29.0179 12.204 28.4299 12.064 27.9379 11.784C27.4459 11.5 27.0679 11.108 26.8039 10.608C26.5399 10.104 26.4079 9.52 26.4079 8.856C26.4079 8.192 26.5419 7.602 26.8099 7.086C27.0819 6.566 27.4659 6.158 27.9619 5.862C28.4619 5.566 29.0539 5.418 29.7379 5.418C30.2219 5.418 30.6519 5.486 31.0279 5.622C31.4079 5.754 31.7559 5.952 32.0719 6.216L31.2499 7.356C31.0339 7.204 30.8059 7.086 30.5659 7.002C30.3259 6.918 30.0759 6.876 29.8159 6.876C29.3879 6.876 29.0419 7.028 28.7779 7.332C28.5179 7.632 28.3879 8.14 28.3879 8.856C28.3879 9.324 28.4499 9.694 28.5739 9.966C28.6979 10.234 28.8659 10.426 29.0779 10.542C29.2939 10.654 29.5359 10.71 29.8039 10.71ZM36.3693 2.292C36.6973 2.292 36.9653 2.394 37.1733 2.598C37.3813 2.802 37.4853 3.056 37.4853 3.36C37.4853 3.664 37.3813 3.92 37.1733 4.128C36.9653 4.332 36.6973 4.434 36.3693 4.434C36.0373 4.434 35.7653 4.332 35.5533 4.128C35.3453 3.92 35.2413 3.664 35.2413 3.36C35.2413 3.056 35.3453 2.802 35.5533 2.598C35.7653 2.394 36.0373 2.292 36.3693 2.292ZM37.5153 5.628V10.704H39.1353V12H33.8133V10.704H35.6193V6.924H33.8733V5.628H37.5153ZM43.5766 5.418C44.2326 5.418 44.7906 5.558 45.2506 5.838C45.7106 6.118 46.0626 6.512 46.3066 7.02C46.5506 7.524 46.6726 8.116 46.6726 8.796C46.6726 9.86 46.4006 10.694 45.8566 11.298C45.3126 11.902 44.5526 12.204 43.5766 12.204C42.6006 12.204 41.8406 11.906 41.2966 11.31C40.7526 10.714 40.4806 9.88 40.4806 8.808C40.4806 8.132 40.6026 7.54 40.8466 7.032C41.0946 6.524 41.4486 6.128 41.9086 5.844C42.3726 5.56 42.9286 5.418 43.5766 5.418ZM43.5766 6.816C43.1886 6.816 42.9006 6.976 42.7126 7.296C42.5286 7.612 42.4366 8.116 42.4366 8.808C42.4366 9.512 42.5286 10.022 42.7126 10.338C42.9006 10.654 43.1886 10.812 43.5766 10.812C43.9646 10.812 44.2506 10.654 44.4346 10.338C44.6226 10.022 44.7166 9.508 44.7166 8.796C44.7166 8.108 44.6226 7.606 44.4346 7.29C44.2506 6.974 43.9646 6.816 43.5766 6.816Z" fill="#E3D550"/>
<path d="M64.188 12L61.998 5.31C62.034 5.546 62.076 5.85 62.124 6.222C62.172 6.59 62.212 7 62.244 7.452C62.28 7.904 62.298 8.374 62.298 8.862V12H60.624V3.684H63.078L65.202 10.338C65.138 9.958 65.072 9.472 65.004 8.88C64.936 8.288 64.902 7.618 64.902 6.87V3.684H66.576V12H64.188ZM70.7953 5.418C71.4513 5.418 72.0093 5.558 72.4693 5.838C72.9293 6.118 73.2813 6.512 73.5253 7.02C73.7693 7.524 73.8913 8.116 73.8913 8.796C73.8913 9.86 73.6193 10.694 73.0753 11.298C72.5313 11.902 71.7713 12.204 70.7953 12.204C69.8193 12.204 69.0593 11.906 68.5153 11.31C67.9713 10.714 67.6993 9.88 67.6993 8.808C67.6993 8.132 67.8213 7.54 68.0653 7.032C68.3133 6.524 68.6673 6.128 69.1273 5.844C69.5913 5.56 70.1473 5.418 70.7953 5.418ZM70.7953 6.816C70.4073 6.816 70.1193 6.976 69.9313 7.296C69.7473 7.612 69.6553 8.116 69.6553 8.808C69.6553 9.512 69.7473 10.022 69.9313 10.338C70.1193 10.654 70.4073 10.812 70.7953 10.812C71.1833 10.812 71.4693 10.654 71.6533 10.338C71.8413 10.022 71.9353 9.508 71.9353 8.796C71.9353 8.108 71.8413 7.606 71.6533 7.29C71.4693 6.974 71.1833 6.816 70.7953 6.816ZM80.9666 11.628C80.7186 11.788 80.4186 11.924 80.0666 12.036C79.7146 12.148 79.3186 12.204 78.8786 12.204C78.0466 12.204 77.4286 11.992 77.0246 11.568C76.6206 11.14 76.4186 10.56 76.4186 9.828V6.936H75.0806V5.628H76.4186V4.248L78.3146 4.02V5.628H80.3666L80.1806 6.936H78.3146V9.828C78.3146 10.144 78.3866 10.37 78.5306 10.506C78.6746 10.642 78.9046 10.71 79.2206 10.71C79.4446 10.71 79.6486 10.684 79.8326 10.632C80.0206 10.576 80.1886 10.506 80.3366 10.422L80.9666 11.628ZM86.3199 5.628V10.704H87.9399V12H82.6179V10.704H84.4239V6.924H82.6779V5.628H86.3199ZM86.0859 1.98L86.8239 3.408L83.9919 4.53L83.4699 3.57L86.0859 1.98ZM92.9993 10.71C93.2593 10.71 93.5033 10.66 93.7313 10.56C93.9633 10.456 94.1933 10.324 94.4213 10.164L95.2673 11.364C94.9873 11.604 94.6453 11.804 94.2413 11.964C93.8413 12.124 93.3933 12.204 92.8973 12.204C92.2133 12.204 91.6253 12.064 91.1333 11.784C90.6413 11.5 90.2633 11.108 89.9993 10.608C89.7353 10.104 89.6033 9.52 89.6033 8.856C89.6033 8.192 89.7373 7.602 90.0053 7.086C90.2773 6.566 90.6613 6.158 91.1573 5.862C91.6573 5.566 92.2493 5.418 92.9333 5.418C93.4173 5.418 93.8473 5.486 94.2233 5.622C94.6033 5.754 94.9513 5.952 95.2673 6.216L94.4453 7.356C94.2293 7.204 94.0013 7.086 93.7613 7.002C93.5213 6.918 93.2713 6.876 93.0113 6.876C92.5833 6.876 92.2373 7.028 91.9733 7.332C91.7133 7.632 91.5833 8.14 91.5833 8.856C91.5833 9.324 91.6453 9.694 91.7693 9.966C91.8933 10.234 92.0613 10.426 92.2733 10.542C92.4893 10.654 92.7313 10.71 92.9993 10.71ZM99.5646 2.292C99.8926 2.292 100.161 2.394 100.369 2.598C100.577 2.802 100.681 3.056 100.681 3.36C100.681 3.664 100.577 3.92 100.369 4.128C100.161 4.332 99.8926 4.434 99.5646 4.434C99.2326 4.434 98.9606 4.332 98.7486 4.128C98.5406 3.92 98.4366 3.664 98.4366 3.36C98.4366 3.056 98.5406 2.802 98.7486 2.598C98.9606 2.394 99.2326 2.292 99.5646 2.292ZM100.711 5.628V10.704H102.331V12H97.0086V10.704H98.8146V6.924H97.0686V5.628H100.711ZM109.376 10.164C109.376 10.404 109.408 10.578 109.472 10.686C109.54 10.794 109.648 10.876 109.796 10.932L109.406 12.18C109.03 12.144 108.712 12.062 108.452 11.934C108.196 11.802 107.994 11.604 107.846 11.34C107.602 11.632 107.29 11.85 106.91 11.994C106.53 12.134 106.142 12.204 105.746 12.204C105.09 12.204 104.566 12.018 104.174 11.646C103.786 11.27 103.592 10.788 103.592 10.2C103.592 9.508 103.862 8.974 104.402 8.598C104.946 8.222 105.71 8.034 106.694 8.034H107.552V7.794C107.552 7.142 107.132 6.816 106.292 6.816C106.088 6.816 105.826 6.846 105.506 6.906C105.186 6.962 104.866 7.044 104.546 7.152L104.108 5.892C104.52 5.736 104.948 5.618 105.392 5.538C105.84 5.458 106.24 5.418 106.592 5.418C107.54 5.418 108.24 5.612 108.692 6C109.148 6.384 109.376 6.94 109.376 7.668V10.164ZM106.4 10.848C106.604 10.848 106.818 10.788 107.042 10.668C107.266 10.544 107.436 10.37 107.552 10.146V9.114H107.084C106.556 9.114 106.168 9.196 105.92 9.36C105.672 9.52 105.548 9.756 105.548 10.068C105.548 10.312 105.622 10.504 105.77 10.644C105.922 10.78 106.132 10.848 106.4 10.848ZM113.763 10.848C114.079 10.848 114.333 10.798 114.525 10.698C114.721 10.598 114.819 10.448 114.819 10.248C114.819 10.112 114.781 9.998 114.705 9.906C114.629 9.814 114.483 9.726 114.267 9.642C114.051 9.558 113.731 9.458 113.307 9.342C112.723 9.186 112.247 8.962 111.879 8.67C111.515 8.378 111.333 7.95 111.333 7.386C111.333 6.818 111.569 6.348 112.041 5.976C112.517 5.604 113.203 5.418 114.099 5.418C114.667 5.418 115.161 5.492 115.581 5.64C116.005 5.784 116.371 5.968 116.679 6.192L115.923 7.308C115.659 7.144 115.375 7.014 115.071 6.918C114.767 6.818 114.461 6.768 114.153 6.768C113.545 6.768 113.241 6.932 113.241 7.26C113.241 7.368 113.279 7.462 113.355 7.542C113.435 7.618 113.583 7.698 113.799 7.782C114.015 7.862 114.331 7.962 114.747 8.082C115.159 8.198 115.517 8.332 115.821 8.484C116.129 8.636 116.367 8.84 116.535 9.096C116.703 9.348 116.787 9.682 116.787 10.098C116.787 10.562 116.649 10.952 116.373 11.268C116.097 11.58 115.731 11.814 115.275 11.97C114.819 12.126 114.319 12.204 113.775 12.204C113.159 12.204 112.615 12.116 112.143 11.94C111.671 11.764 111.269 11.532 110.937 11.244L111.891 10.176C112.139 10.368 112.419 10.528 112.731 10.656C113.047 10.784 113.391 10.848 113.763 10.848Z" fill="#E3D550"/>
<path d="M132.852 9.564C132.852 10.044 132.76 10.442 132.576 10.758C132.392 11.074 132.14 11.322 131.82 11.502C131.5 11.682 131.134 11.81 130.722 11.886C130.314 11.962 129.884 12 129.432 12H126.672V3.684H129.306C129.878 3.684 130.404 3.748 130.884 3.876C131.368 4.004 131.756 4.224 132.048 4.536C132.344 4.844 132.492 5.268 132.492 5.808C132.492 6.304 132.34 6.7 132.036 6.996C131.732 7.292 131.376 7.492 130.968 7.596C131.264 7.644 131.556 7.738 131.844 7.878C132.136 8.014 132.376 8.218 132.564 8.49C132.756 8.762 132.852 9.12 132.852 9.564ZM130.512 6.006C130.512 5.678 130.408 5.442 130.2 5.298C129.996 5.15 129.678 5.076 129.246 5.076H128.64V7.002H129.306C129.73 7.002 130.036 6.924 130.224 6.768C130.416 6.612 130.512 6.358 130.512 6.006ZM130.824 9.486C130.824 9.046 130.698 8.742 130.446 8.574C130.198 8.406 129.866 8.322 129.45 8.322H128.64V10.566H129.366C129.622 10.566 129.86 10.54 130.08 10.488C130.304 10.432 130.484 10.326 130.62 10.17C130.756 10.014 130.824 9.786 130.824 9.486ZM137.359 3.096V9.996C137.359 10.252 137.431 10.436 137.575 10.548C137.723 10.656 137.925 10.71 138.181 10.71C138.345 10.71 138.503 10.692 138.655 10.656C138.807 10.616 138.949 10.57 139.081 10.518L139.537 11.784C139.321 11.896 139.061 11.994 138.757 12.078C138.453 12.162 138.099 12.204 137.695 12.204C136.927 12.204 136.363 11.984 136.003 11.544C135.643 11.1 135.463 10.506 135.463 9.762V4.392H133.585V3.096H137.359ZM143.991 5.418C144.647 5.418 145.205 5.558 145.665 5.838C146.125 6.118 146.477 6.512 146.721 7.02C146.965 7.524 147.087 8.116 147.087 8.796C147.087 9.86 146.815 10.694 146.271 11.298C145.727 11.902 144.967 12.204 143.991 12.204C143.015 12.204 142.255 11.906 141.711 11.31C141.167 10.714 140.895 9.88 140.895 8.808C140.895 8.132 141.017 7.54 141.261 7.032C141.509 6.524 141.863 6.128 142.323 5.844C142.787 5.56 143.343 5.418 143.991 5.418ZM143.991 6.816C143.603 6.816 143.315 6.976 143.127 7.296C142.943 7.612 142.851 8.116 142.851 8.808C142.851 9.512 142.943 10.022 143.127 10.338C143.315 10.654 143.603 10.812 143.991 10.812C144.379 10.812 144.665 10.654 144.849 10.338C145.037 10.022 145.131 9.508 145.131 8.796C145.131 8.108 145.037 7.606 144.849 7.29C144.665 6.974 144.379 6.816 143.991 6.816ZM154.084 4.608L154.528 6C154.304 6.088 154.042 6.152 153.742 6.192C153.442 6.232 153.092 6.252 152.692 6.252C153.092 6.424 153.396 6.638 153.604 6.894C153.816 7.146 153.922 7.478 153.922 7.89C153.922 8.302 153.812 8.67 153.592 8.994C153.372 9.314 153.06 9.566 152.656 9.75C152.252 9.934 151.774 10.026 151.222 10.026C150.958 10.026 150.712 10.002 150.484 9.954C150.344 10.026 150.274 10.148 150.274 10.32C150.274 10.42 150.314 10.51 150.394 10.59C150.478 10.67 150.672 10.71 150.976 10.71H152.02C152.76 10.71 153.35 10.884 153.79 11.232C154.23 11.58 154.45 12.02 154.45 12.552C154.45 13.204 154.164 13.718 153.592 14.094C153.02 14.47 152.17 14.658 151.042 14.658C150.226 14.658 149.594 14.574 149.146 14.406C148.702 14.242 148.392 14.006 148.216 13.698C148.044 13.394 147.958 13.032 147.958 12.612H149.638C149.638 12.796 149.674 12.946 149.746 13.062C149.822 13.182 149.964 13.27 150.172 13.326C150.384 13.382 150.69 13.41 151.09 13.41C151.494 13.41 151.802 13.378 152.014 13.314C152.226 13.25 152.37 13.162 152.446 13.05C152.526 12.942 152.566 12.82 152.566 12.684C152.566 12.496 152.492 12.344 152.344 12.228C152.196 12.112 151.962 12.054 151.642 12.054H150.628C149.94 12.054 149.44 11.928 149.128 11.676C148.816 11.42 148.66 11.122 148.66 10.782C148.66 10.546 148.722 10.322 148.846 10.11C148.974 9.898 149.152 9.72 149.38 9.576C148.972 9.36 148.68 9.106 148.504 8.814C148.328 8.518 148.24 8.164 148.24 7.752C148.24 7.272 148.362 6.86 148.606 6.516C148.85 6.168 149.186 5.9 149.614 5.712C150.046 5.524 150.538 5.43 151.09 5.43C151.566 5.438 151.98 5.406 152.332 5.334C152.684 5.258 153 5.156 153.28 5.028C153.56 4.896 153.828 4.756 154.084 4.608ZM151.138 6.66C150.838 6.66 150.6 6.756 150.424 6.948C150.248 7.136 150.16 7.396 150.16 7.728C150.16 8.08 150.25 8.35 150.43 8.538C150.61 8.726 150.846 8.82 151.138 8.82C151.786 8.82 152.11 8.448 152.11 7.704C152.11 7.008 151.786 6.66 151.138 6.66Z" fill="#E3D550"/>
<line x1="1" y1="15.5" x2="48" y2="15.5" stroke="#E3D550"/>
</svg>
