<svg width="221" height="24" viewBox="0 0 221 24" fill="none" xmlns="http://www.w3.org/2000/svg">
<rect width="221" height="24" fill="white"/>
<rect width="70" height="24" fill="#18798E"/>
<rect x="82" width="69" height="24" fill="#18798E"/>
<rect x="82" width="69" height="24" fill="#18798E"/>
<rect x="163" width="58" height="24" fill="#18798E"/>
<path d="M19.3 7.684V9.124H17.584V14.554H19.3V16H13.9V14.554H15.616V9.124H13.9V7.684H19.3ZM21.0353 16V9.628H22.6913L22.8233 10.366C23.1073 10.046 23.4073 9.808 23.7233 9.652C24.0393 9.496 24.3993 9.418 24.8033 9.418C25.3473 9.418 25.7753 9.584 26.0873 9.916C26.3993 10.248 26.5553 10.716 26.5553 11.32V16H24.6593V11.866C24.6593 11.474 24.6153 11.202 24.5273 11.05C24.4433 10.894 24.2833 10.816 24.0473 10.816C23.8473 10.816 23.6553 10.88 23.4713 11.008C23.2913 11.136 23.1113 11.314 22.9313 11.542V16H21.0353ZM32.1246 9.628V14.704H33.7446V16H28.4226V14.704H30.2286V10.924H28.4826V9.628H32.1246ZM31.8906 5.98L32.6286 7.408L29.7966 8.53L29.2746 7.57L31.8906 5.98ZM38.8039 14.71C39.0639 14.71 39.3079 14.66 39.5359 14.56C39.7679 14.456 39.9979 14.324 40.2259 14.164L41.0719 15.364C40.7919 15.604 40.4499 15.804 40.0459 15.964C39.6459 16.124 39.1979 16.204 38.7019 16.204C38.0179 16.204 37.4299 16.064 36.9379 15.784C36.4459 15.5 36.0679 15.108 35.8039 14.608C35.5399 14.104 35.4079 13.52 35.4079 12.856C35.4079 12.192 35.5419 11.602 35.8099 11.086C36.0819 10.566 36.4659 10.158 36.9619 9.862C37.4619 9.566 38.0539 9.418 38.7379 9.418C39.2219 9.418 39.6519 9.486 40.0279 9.622C40.4079 9.754 40.7559 9.952 41.0719 10.216L40.2499 11.356C40.0339 11.204 39.8059 11.086 39.5659 11.002C39.3259 10.918 39.0759 10.876 38.8159 10.876C38.3879 10.876 38.0419 11.028 37.7779 11.332C37.5179 11.632 37.3879 12.14 37.3879 12.856C37.3879 13.324 37.4499 13.694 37.5739 13.966C37.6979 14.234 37.8659 14.426 38.0779 14.542C38.2939 14.654 38.5359 14.71 38.8039 14.71ZM45.3693 6.292C45.6973 6.292 45.9653 6.394 46.1733 6.598C46.3813 6.802 46.4853 7.056 46.4853 7.36C46.4853 7.664 46.3813 7.92 46.1733 8.128C45.9653 8.332 45.6973 8.434 45.3693 8.434C45.0373 8.434 44.7653 8.332 44.5533 8.128C44.3453 7.92 44.2413 7.664 44.2413 7.36C44.2413 7.056 44.3453 6.802 44.5533 6.598C44.7653 6.394 45.0373 6.292 45.3693 6.292ZM46.5153 9.628V14.704H48.1353V16H42.8133V14.704H44.6193V10.924H42.8733V9.628H46.5153ZM52.5766 9.418C53.2326 9.418 53.7906 9.558 54.2506 9.838C54.7106 10.118 55.0626 10.512 55.3066 11.02C55.5506 11.524 55.6726 12.116 55.6726 12.796C55.6726 13.86 55.4006 14.694 54.8566 15.298C54.3126 15.902 53.5526 16.204 52.5766 16.204C51.6006 16.204 50.8406 15.906 50.2966 15.31C49.7526 14.714 49.4806 13.88 49.4806 12.808C49.4806 12.132 49.6026 11.54 49.8466 11.032C50.0946 10.524 50.4486 10.128 50.9086 9.844C51.3726 9.56 51.9286 9.418 52.5766 9.418ZM52.5766 10.816C52.1886 10.816 51.9006 10.976 51.7126 11.296C51.5286 11.612 51.4366 12.116 51.4366 12.808C51.4366 13.512 51.5286 14.022 51.7126 14.338C51.9006 14.654 52.1886 14.812 52.5766 14.812C52.9646 14.812 53.2506 14.654 53.4346 14.338C53.6226 14.022 53.7166 13.508 53.7166 12.796C53.7166 12.108 53.6226 11.606 53.4346 11.29C53.2506 10.974 52.9646 10.816 52.5766 10.816Z" fill="#E3D550"/>
<path d="M92.188 16L89.998 9.31C90.034 9.546 90.076 9.85 90.124 10.222C90.172 10.59 90.212 11 90.244 11.452C90.28 11.904 90.298 12.374 90.298 12.862V16H88.624V7.684H91.078L93.202 14.338C93.138 13.958 93.072 13.472 93.004 12.88C92.936 12.288 92.902 11.618 92.902 10.87V7.684H94.576V16H92.188ZM98.7953 9.418C99.4513 9.418 100.009 9.558 100.469 9.838C100.929 10.118 101.281 10.512 101.525 11.02C101.769 11.524 101.891 12.116 101.891 12.796C101.891 13.86 101.619 14.694 101.075 15.298C100.531 15.902 99.7713 16.204 98.7953 16.204C97.8193 16.204 97.0593 15.906 96.5153 15.31C95.9713 14.714 95.6993 13.88 95.6993 12.808C95.6993 12.132 95.8213 11.54 96.0653 11.032C96.3133 10.524 96.6673 10.128 97.1273 9.844C97.5913 9.56 98.1473 9.418 98.7953 9.418ZM98.7953 10.816C98.4073 10.816 98.1193 10.976 97.9313 11.296C97.7473 11.612 97.6553 12.116 97.6553 12.808C97.6553 13.512 97.7473 14.022 97.9313 14.338C98.1193 14.654 98.4073 14.812 98.7953 14.812C99.1833 14.812 99.4693 14.654 99.6533 14.338C99.8413 14.022 99.9353 13.508 99.9353 12.796C99.9353 12.108 99.8413 11.606 99.6533 11.29C99.4693 10.974 99.1833 10.816 98.7953 10.816ZM108.967 15.628C108.719 15.788 108.419 15.924 108.067 16.036C107.715 16.148 107.319 16.204 106.879 16.204C106.047 16.204 105.429 15.992 105.025 15.568C104.621 15.14 104.419 14.56 104.419 13.828V10.936H103.081V9.628H104.419V8.248L106.315 8.02V9.628H108.367L108.181 10.936H106.315V13.828C106.315 14.144 106.387 14.37 106.531 14.506C106.675 14.642 106.905 14.71 107.221 14.71C107.445 14.71 107.649 14.684 107.833 14.632C108.021 14.576 108.189 14.506 108.337 14.422L108.967 15.628ZM114.32 9.628V14.704H115.94V16H110.618V14.704H112.424V10.924H110.678V9.628H114.32ZM114.086 5.98L114.824 7.408L111.992 8.53L111.47 7.57L114.086 5.98ZM120.999 14.71C121.259 14.71 121.503 14.66 121.731 14.56C121.963 14.456 122.193 14.324 122.421 14.164L123.267 15.364C122.987 15.604 122.645 15.804 122.241 15.964C121.841 16.124 121.393 16.204 120.897 16.204C120.213 16.204 119.625 16.064 119.133 15.784C118.641 15.5 118.263 15.108 117.999 14.608C117.735 14.104 117.603 13.52 117.603 12.856C117.603 12.192 117.737 11.602 118.005 11.086C118.277 10.566 118.661 10.158 119.157 9.862C119.657 9.566 120.249 9.418 120.933 9.418C121.417 9.418 121.847 9.486 122.223 9.622C122.603 9.754 122.951 9.952 123.267 10.216L122.445 11.356C122.229 11.204 122.001 11.086 121.761 11.002C121.521 10.918 121.271 10.876 121.011 10.876C120.583 10.876 120.237 11.028 119.973 11.332C119.713 11.632 119.583 12.14 119.583 12.856C119.583 13.324 119.645 13.694 119.769 13.966C119.893 14.234 120.061 14.426 120.273 14.542C120.489 14.654 120.731 14.71 120.999 14.71ZM127.565 6.292C127.893 6.292 128.161 6.394 128.369 6.598C128.577 6.802 128.681 7.056 128.681 7.36C128.681 7.664 128.577 7.92 128.369 8.128C128.161 8.332 127.893 8.434 127.565 8.434C127.233 8.434 126.961 8.332 126.749 8.128C126.541 7.92 126.437 7.664 126.437 7.36C126.437 7.056 126.541 6.802 126.749 6.598C126.961 6.394 127.233 6.292 127.565 6.292ZM128.711 9.628V14.704H130.331V16H125.009V14.704H126.815V10.924H125.069V9.628H128.711ZM137.376 14.164C137.376 14.404 137.408 14.578 137.472 14.686C137.54 14.794 137.648 14.876 137.796 14.932L137.406 16.18C137.03 16.144 136.712 16.062 136.452 15.934C136.196 15.802 135.994 15.604 135.846 15.34C135.602 15.632 135.29 15.85 134.91 15.994C134.53 16.134 134.142 16.204 133.746 16.204C133.09 16.204 132.566 16.018 132.174 15.646C131.786 15.27 131.592 14.788 131.592 14.2C131.592 13.508 131.862 12.974 132.402 12.598C132.946 12.222 133.71 12.034 134.694 12.034H135.552V11.794C135.552 11.142 135.132 10.816 134.292 10.816C134.088 10.816 133.826 10.846 133.506 10.906C133.186 10.962 132.866 11.044 132.546 11.152L132.108 9.892C132.52 9.736 132.948 9.618 133.392 9.538C133.84 9.458 134.24 9.418 134.592 9.418C135.54 9.418 136.24 9.612 136.692 10C137.148 10.384 137.376 10.94 137.376 11.668V14.164ZM134.4 14.848C134.604 14.848 134.818 14.788 135.042 14.668C135.266 14.544 135.436 14.37 135.552 14.146V13.114H135.084C134.556 13.114 134.168 13.196 133.92 13.36C133.672 13.52 133.548 13.756 133.548 14.068C133.548 14.312 133.622 14.504 133.77 14.644C133.922 14.78 134.132 14.848 134.4 14.848ZM141.763 14.848C142.079 14.848 142.333 14.798 142.525 14.698C142.721 14.598 142.819 14.448 142.819 14.248C142.819 14.112 142.781 13.998 142.705 13.906C142.629 13.814 142.483 13.726 142.267 13.642C142.051 13.558 141.731 13.458 141.307 13.342C140.723 13.186 140.247 12.962 139.879 12.67C139.515 12.378 139.333 11.95 139.333 11.386C139.333 10.818 139.569 10.348 140.041 9.976C140.517 9.604 141.203 9.418 142.099 9.418C142.667 9.418 143.161 9.492 143.581 9.64C144.005 9.784 144.371 9.968 144.679 10.192L143.923 11.308C143.659 11.144 143.375 11.014 143.071 10.918C142.767 10.818 142.461 10.768 142.153 10.768C141.545 10.768 141.241 10.932 141.241 11.26C141.241 11.368 141.279 11.462 141.355 11.542C141.435 11.618 141.583 11.698 141.799 11.782C142.015 11.862 142.331 11.962 142.747 12.082C143.159 12.198 143.517 12.332 143.821 12.484C144.129 12.636 144.367 12.84 144.535 13.096C144.703 13.348 144.787 13.682 144.787 14.098C144.787 14.562 144.649 14.952 144.373 15.268C144.097 15.58 143.731 15.814 143.275 15.97C142.819 16.126 142.319 16.204 141.775 16.204C141.159 16.204 140.615 16.116 140.143 15.94C139.671 15.764 139.269 15.532 138.937 15.244L139.891 14.176C140.139 14.368 140.419 14.528 140.731 14.656C141.047 14.784 141.391 14.848 141.763 14.848Z" fill="#E3D550"/>
<path d="M183.852 13.564C183.852 14.044 183.76 14.442 183.576 14.758C183.392 15.074 183.14 15.322 182.82 15.502C182.5 15.682 182.134 15.81 181.722 15.886C181.314 15.962 180.884 16 180.432 16H177.672V7.684H180.306C180.878 7.684 181.404 7.748 181.884 7.876C182.368 8.004 182.756 8.224 183.048 8.536C183.344 8.844 183.492 9.268 183.492 9.808C183.492 10.304 183.34 10.7 183.036 10.996C182.732 11.292 182.376 11.492 181.968 11.596C182.264 11.644 182.556 11.738 182.844 11.878C183.136 12.014 183.376 12.218 183.564 12.49C183.756 12.762 183.852 13.12 183.852 13.564ZM181.512 10.006C181.512 9.678 181.408 9.442 181.2 9.298C180.996 9.15 180.678 9.076 180.246 9.076H179.64V11.002H180.306C180.73 11.002 181.036 10.924 181.224 10.768C181.416 10.612 181.512 10.358 181.512 10.006ZM181.824 13.486C181.824 13.046 181.698 12.742 181.446 12.574C181.198 12.406 180.866 12.322 180.45 12.322H179.64V14.566H180.366C180.622 14.566 180.86 14.54 181.08 14.488C181.304 14.432 181.484 14.326 181.62 14.17C181.756 14.014 181.824 13.786 181.824 13.486ZM188.359 7.096V13.996C188.359 14.252 188.431 14.436 188.575 14.548C188.723 14.656 188.925 14.71 189.181 14.71C189.345 14.71 189.503 14.692 189.655 14.656C189.807 14.616 189.949 14.57 190.081 14.518L190.537 15.784C190.321 15.896 190.061 15.994 189.757 16.078C189.453 16.162 189.099 16.204 188.695 16.204C187.927 16.204 187.363 15.984 187.003 15.544C186.643 15.1 186.463 14.506 186.463 13.762V8.392H184.585V7.096H188.359ZM194.991 9.418C195.647 9.418 196.205 9.558 196.665 9.838C197.125 10.118 197.477 10.512 197.721 11.02C197.965 11.524 198.087 12.116 198.087 12.796C198.087 13.86 197.815 14.694 197.271 15.298C196.727 15.902 195.967 16.204 194.991 16.204C194.015 16.204 193.255 15.906 192.711 15.31C192.167 14.714 191.895 13.88 191.895 12.808C191.895 12.132 192.017 11.54 192.261 11.032C192.509 10.524 192.863 10.128 193.323 9.844C193.787 9.56 194.343 9.418 194.991 9.418ZM194.991 10.816C194.603 10.816 194.315 10.976 194.127 11.296C193.943 11.612 193.851 12.116 193.851 12.808C193.851 13.512 193.943 14.022 194.127 14.338C194.315 14.654 194.603 14.812 194.991 14.812C195.379 14.812 195.665 14.654 195.849 14.338C196.037 14.022 196.131 13.508 196.131 12.796C196.131 12.108 196.037 11.606 195.849 11.29C195.665 10.974 195.379 10.816 194.991 10.816ZM205.084 8.608L205.528 10C205.304 10.088 205.042 10.152 204.742 10.192C204.442 10.232 204.092 10.252 203.692 10.252C204.092 10.424 204.396 10.638 204.604 10.894C204.816 11.146 204.922 11.478 204.922 11.89C204.922 12.302 204.812 12.67 204.592 12.994C204.372 13.314 204.06 13.566 203.656 13.75C203.252 13.934 202.774 14.026 202.222 14.026C201.958 14.026 201.712 14.002 201.484 13.954C201.344 14.026 201.274 14.148 201.274 14.32C201.274 14.42 201.314 14.51 201.394 14.59C201.478 14.67 201.672 14.71 201.976 14.71H203.02C203.76 14.71 204.35 14.884 204.79 15.232C205.23 15.58 205.45 16.02 205.45 16.552C205.45 17.204 205.164 17.718 204.592 18.094C204.02 18.47 203.17 18.658 202.042 18.658C201.226 18.658 200.594 18.574 200.146 18.406C199.702 18.242 199.392 18.006 199.216 17.698C199.044 17.394 198.958 17.032 198.958 16.612H200.638C200.638 16.796 200.674 16.946 200.746 17.062C200.822 17.182 200.964 17.27 201.172 17.326C201.384 17.382 201.69 17.41 202.09 17.41C202.494 17.41 202.802 17.378 203.014 17.314C203.226 17.25 203.37 17.162 203.446 17.05C203.526 16.942 203.566 16.82 203.566 16.684C203.566 16.496 203.492 16.344 203.344 16.228C203.196 16.112 202.962 16.054 202.642 16.054H201.628C200.94 16.054 200.44 15.928 200.128 15.676C199.816 15.42 199.66 15.122 199.66 14.782C199.66 14.546 199.722 14.322 199.846 14.11C199.974 13.898 200.152 13.72 200.38 13.576C199.972 13.36 199.68 13.106 199.504 12.814C199.328 12.518 199.24 12.164 199.24 11.752C199.24 11.272 199.362 10.86 199.606 10.516C199.85 10.168 200.186 9.9 200.614 9.712C201.046 9.524 201.538 9.43 202.09 9.43C202.566 9.438 202.98 9.406 203.332 9.334C203.684 9.258 204 9.156 204.28 9.028C204.56 8.896 204.828 8.756 205.084 8.608ZM202.138 10.66C201.838 10.66 201.6 10.756 201.424 10.948C201.248 11.136 201.16 11.396 201.16 11.728C201.16 12.08 201.25 12.35 201.43 12.538C201.61 12.726 201.846 12.82 202.138 12.82C202.786 12.82 203.11 12.448 203.11 11.704C203.11 11.008 202.786 10.66 202.138 10.66Z" fill="#E3D550"/>
<line x1="10" y1="19.5" x2="57" y2="19.5" stroke="#E3D550"/>
</svg>
