<svg width="33" height="31" viewBox="0 0 33 31" fill="none" xmlns="http://www.w3.org/2000/svg">
<path d="M0 2.1817C0 0.975733 0.7359 0 1.64175 0H14.8582C15.2937 1.72443e-08 15.7113 0.229856 16.0191 0.639004C16.327 1.04815 16.5 1.60307 16.5 2.1817C16.5 2.76032 16.327 3.31524 16.0191 3.72439C15.7113 4.13354 15.2937 4.36339 14.8582 4.36339H1.64175C1.20633 4.36339 0.788745 4.13354 0.480858 3.72439C0.17297 3.31524 0 2.76032 0 2.1817Z" fill="#3C526C"/>
<path d="M0 15.3482C0 14.1422 0.7359 13.1665 1.64175 13.1665H31.3582C31.7937 13.1665 32.2113 13.3964 32.5191 13.8055C32.827 14.2147 33 14.7696 33 15.3482C33 15.9268 32.827 16.4817 32.5191 16.8909C32.2113 17.3 31.7937 17.5299 31.3582 17.5299H1.64175C1.20633 17.5299 0.788745 17.3 0.480858 16.8909C0.17297 16.4817 0 15.9268 0 15.3482Z" fill="#3C526C"/>
<path d="M1.64175 26.3335C1.20633 26.3335 0.788745 26.5634 0.480857 26.9725C0.17297 27.3816 0 27.9366 0 28.5152C0 29.0938 0.17297 29.6487 0.480857 30.0579C0.788745 30.467 1.20633 30.6969 1.64175 30.6969H21.4582C21.8937 30.6969 22.3113 30.467 22.6191 30.0579C22.927 29.6487 23.1 29.0938 23.1 28.5152C23.1 27.9366 22.927 27.3816 22.6191 26.9725C22.3113 26.5634 21.8937 26.3335 21.4582 26.3335H1.64175Z" fill="#3C526C"/>
</svg>
